<mxfile host="" modified="2020-07-17T08:51:01.688Z" agent="5.0 (Macintosh; Intel Mac OS X 10_15_6) AppleWebKit/537.36 (KHTML, like Gecko) Code/1.46.1 Chrome/78.0.3904.130 Electron/7.3.1 Safari/537.36" etag="bVW_qJs2SnLI_TJQaxoL" version="13.1.3">
    <diagram id="6hGFLwfOUW9BJ-s0fimq" name="Page-1">
        <mxGraphModel dx="828" dy="859" grid="1" gridSize="10" guides="1" tooltips="1" connect="1" arrows="1" fold="1" page="1" pageScale="1" pageWidth="827" pageHeight="1169" math="0" shadow="0">
            <root>
                <mxCell id="0"/>
                <mxCell id="1" parent="0"/>
                <mxCell id="2" value="class = side_bar" style="rounded=0;whiteSpace=wrap;html=1;align=center;fontStyle=1;fontSize=18;" vertex="1" parent="1">
                    <mxGeometry x="40" y="280" width="240" height="600" as="geometry"/>
                </mxCell>
                <mxCell id="4" value="class = main_chat" style="rounded=0;whiteSpace=wrap;html=1;fontSize=17;fontStyle=1" vertex="1" parent="1">
                    <mxGeometry x="280" y="280" width="510" height="600" as="geometry"/>
                </mxCell>
                <mxCell id="5" value="class = side_top" style="rounded=0;whiteSpace=wrap;html=1;align=left;verticalAlign=top;" vertex="1" parent="1">
                    <mxGeometry x="40" y="280" width="240" height="120" as="geometry"/>
                </mxCell>
                <mxCell id="7" value="class = side_bottom" style="text;html=1;strokeColor=none;fillColor=none;align=left;verticalAlign=middle;whiteSpace=wrap;rounded=0;" vertex="1" parent="1">
                    <mxGeometry x="43" y="402" width="150" height="20" as="geometry"/>
                </mxCell>
                <mxCell id="9" value="class = main_top" style="rounded=0;whiteSpace=wrap;html=1;fontSize=12;align=left;verticalAlign=top;" vertex="1" parent="1">
                    <mxGeometry x="280" y="280" width="510" height="120" as="geometry"/>
                </mxCell>
                <mxCell id="10" value="class = main_middle" style="text;html=1;strokeColor=none;fillColor=none;align=left;verticalAlign=middle;whiteSpace=wrap;rounded=0;" vertex="1" parent="1">
                    <mxGeometry x="280" y="402" width="150" height="20" as="geometry"/>
                </mxCell>
                <mxCell id="11" value="class= user_name" style="rounded=0;whiteSpace=wrap;html=1;fontSize=12;align=center;" vertex="1" parent="1">
                    <mxGeometry x="50" y="315" width="110" height="50" as="geometry"/>
                </mxCell>
                <mxCell id="12" value="&amp;nbsp;room_name" style="rounded=0;whiteSpace=wrap;html=1;fontSize=12;align=center;" vertex="1" parent="1">
                    <mxGeometry x="50" y="430" width="220" height="50" as="geometry"/>
                </mxCell>
                <mxCell id="13" value="" style="rounded=0;whiteSpace=wrap;html=1;fontSize=12;align=center;" vertex="1" parent="1">
                    <mxGeometry x="280" y="810" width="510" height="70" as="geometry"/>
                </mxCell>
                <mxCell id="14" value="class =&amp;nbsp; main_bottom" style="text;html=1;strokeColor=none;fillColor=none;align=left;verticalAlign=middle;whiteSpace=wrap;rounded=0;" vertex="1" parent="1">
                    <mxGeometry x="280" y="810" width="150" height="20" as="geometry"/>
                </mxCell>
                <mxCell id="15" value="チャット終了" style="rounded=0;whiteSpace=wrap;html=1;fontSize=12;align=center;" vertex="1" parent="1">
                    <mxGeometry x="660" y="310" width="120" height="60" as="geometry"/>
                </mxCell>
                <mxCell id="16" value="チャット作成" style="rounded=0;whiteSpace=wrap;html=1;fontSize=12;align=center;" vertex="1" parent="1">
                    <mxGeometry x="170" y="315" width="100" height="55" as="geometry"/>
                </mxCell>
                <mxCell id="17" value="room_name" style="rounded=0;whiteSpace=wrap;html=1;fontSize=12;align=center;" vertex="1" parent="1">
                    <mxGeometry x="295" y="315" width="120" height="60" as="geometry"/>
                </mxCell>
                <mxCell id="18" value="&amp;nbsp;room_name" style="rounded=0;whiteSpace=wrap;html=1;fontSize=12;align=center;" vertex="1" parent="1">
                    <mxGeometry x="50" y="490" width="220" height="50" as="geometry"/>
                </mxCell>
            </root>
        </mxGraphModel>
    </diagram>
</mxfile>